<svg width="179" height="189" viewBox="0 0 179 189" fill="none" xmlns="http://www.w3.org/2000/svg">
<path d="M123.334 93.75H56.667V6.25H102.5L123.334 27.0833V93.75Z" fill="#90CAF9"/>
<path d="M120.209 29.1667H100.417V9.375L120.209 29.1667Z" fill="#E1F5FE"/>
<path d="M102.5 58.3333L81.667 45.8333V70.8333L102.5 58.3333Z" fill="#1976D2"/>
<path d="M25.4318 139V133.318L36.2841 124.341C37.0038 123.744 37.6193 123.186 38.1307 122.665C38.6515 122.134 39.0492 121.59 39.3239 121.031C39.608 120.473 39.75 119.852 39.75 119.17C39.75 118.422 39.589 117.783 39.267 117.253C38.9545 116.723 38.5189 116.315 37.9602 116.031C37.4015 115.738 36.7576 115.591 36.0284 115.591C35.2992 115.591 34.6553 115.738 34.0966 116.031C33.5473 116.325 33.1212 116.756 32.8182 117.324C32.5152 117.892 32.3636 118.583 32.3636 119.398H24.8636C24.8636 117.352 25.3229 115.591 26.2415 114.114C27.16 112.636 28.4574 111.5 30.1335 110.705C31.8097 109.909 33.7746 109.511 36.0284 109.511C38.358 109.511 40.375 109.885 42.0795 110.634C43.7936 111.372 45.1146 112.414 46.0426 113.759C46.9801 115.103 47.4489 116.68 47.4489 118.489C47.4489 119.606 47.2169 120.719 46.7528 121.827C46.2888 122.925 45.4555 124.142 44.2528 125.477C43.0502 126.812 41.3409 128.403 39.125 130.25L36.3977 132.523V132.693H47.7614V139H25.4318ZM63.4503 139.398C61.7552 139.398 60.1454 139.133 58.6207 138.602C57.1056 138.062 55.7609 137.215 54.5866 136.06C53.4124 134.904 52.4891 133.399 51.8168 131.543C51.1539 129.687 50.8272 127.437 50.8366 124.795C50.8461 122.437 51.1491 120.316 51.7457 118.432C52.3518 116.547 53.2088 114.942 54.3168 113.616C55.4342 112.291 56.7694 111.277 58.3224 110.577C59.8755 109.866 61.6037 109.511 63.5071 109.511C65.6473 109.511 67.5317 109.923 69.1605 110.747C70.7893 111.571 72.0866 112.674 73.0526 114.057C74.0279 115.43 74.5961 116.945 74.7571 118.602H66.973C66.7931 117.778 66.3764 117.177 65.723 116.798C65.0791 116.41 64.3404 116.216 63.5071 116.216C61.8499 116.216 60.633 116.936 59.8565 118.375C59.0895 119.814 58.6965 121.708 58.6776 124.057H58.848C59.2173 123.167 59.776 122.404 60.5241 121.77C61.2723 121.135 62.1435 120.648 63.1378 120.307C64.1321 119.966 65.1832 119.795 66.2912 119.795C68.0526 119.795 69.5914 120.193 70.9077 120.989C72.2334 121.784 73.2656 122.873 74.0043 124.256C74.7429 125.638 75.1075 127.22 75.098 129C75.1075 131.083 74.6151 132.906 73.6207 134.469C72.6359 136.031 71.2675 137.243 69.5156 138.105C67.7637 138.967 65.742 139.398 63.4503 139.398ZM63.3935 133.432C64.1795 133.432 64.8755 133.252 65.4815 132.892C66.0971 132.532 66.5753 132.04 66.9162 131.415C67.2666 130.79 67.437 130.08 67.4276 129.284C67.437 128.479 67.2666 127.769 66.9162 127.153C66.5753 126.528 66.0971 126.036 65.4815 125.676C64.8755 125.316 64.1795 125.136 63.3935 125.136C62.8158 125.136 62.2808 125.241 61.7884 125.449C61.3054 125.648 60.884 125.937 60.5241 126.315C60.1643 126.685 59.8802 127.125 59.6719 127.636C59.473 128.138 59.3688 128.687 59.3594 129.284C59.3688 130.08 59.5488 130.79 59.8991 131.415C60.2495 132.04 60.7277 132.532 61.3338 132.892C61.9399 133.252 62.6264 133.432 63.3935 133.432ZM86.5859 139V109.909H94.4837V121.273H104.938V109.909H112.836V139H104.938V127.636H94.4837V139H86.5859ZM116.7 139V117.182H124.313V121.33H124.54C124.938 119.795 125.568 118.673 126.43 117.963C127.301 117.253 128.319 116.898 129.484 116.898C129.825 116.898 130.161 116.926 130.492 116.983C130.833 117.03 131.16 117.101 131.472 117.196V123.886C131.084 123.754 130.606 123.654 130.038 123.588C129.469 123.522 128.982 123.489 128.575 123.489C127.808 123.489 127.116 123.664 126.501 124.014C125.895 124.355 125.416 124.838 125.066 125.463C124.716 126.079 124.54 126.803 124.54 127.636V139H116.7ZM153.987 124.284H146.771C146.733 123.839 146.576 123.455 146.302 123.134C146.027 122.812 145.672 122.565 145.237 122.395C144.81 122.215 144.337 122.125 143.816 122.125C143.144 122.125 142.566 122.248 142.083 122.494C141.6 122.741 141.363 123.091 141.373 123.545C141.363 123.867 141.501 124.166 141.785 124.44C142.078 124.715 142.642 124.928 143.475 125.08L147.907 125.875C150.142 126.282 151.804 126.969 152.893 127.935C153.991 128.891 154.545 130.174 154.555 131.784C154.545 133.337 154.081 134.687 153.163 135.832C152.254 136.969 151.008 137.849 149.427 138.474C147.855 139.09 146.06 139.398 144.043 139.398C140.71 139.398 138.101 138.716 136.217 137.352C134.342 135.989 133.295 134.189 133.077 131.955H140.862C140.966 132.646 141.307 133.181 141.884 133.56C142.471 133.929 143.21 134.114 144.1 134.114C144.82 134.114 145.412 133.991 145.876 133.744C146.349 133.498 146.591 133.148 146.6 132.693C146.591 132.277 146.382 131.945 145.975 131.699C145.577 131.453 144.952 131.254 144.1 131.102L140.237 130.42C138.011 130.032 136.344 129.294 135.237 128.205C134.129 127.116 133.579 125.714 133.589 124C133.579 122.485 133.977 121.202 134.782 120.151C135.596 119.09 136.756 118.285 138.262 117.736C139.777 117.177 141.572 116.898 143.646 116.898C146.799 116.898 149.285 117.551 151.103 118.858C152.931 120.165 153.892 121.973 153.987 124.284Z" fill="white"/>
<path d="M7.63 179.45C7.63 179.45 7.56 179.2 7.42 178.7C7.28 178.18 7.09 177.49 6.85 176.63C6.63 175.75 6.36 174.76 6.04 173.66C5.74 172.54 5.42 171.39 5.08 170.21C4.76 169.01 4.43 167.83 4.09 166.67C3.77 165.51 3.46 164.45 3.16 163.49C2.98 162.87 2.71 162.42 2.35 162.14C2.01 161.86 1.53 161.7 0.91 161.66L0.79 161.45L1 159.68C1 159.68 1.13 159.69 1.39 159.71C1.67 159.71 2.01 159.71 2.41 159.71C2.81 159.71 3.22 159.72 3.64 159.74C4.08 159.74 4.46 159.74 4.78 159.74C5.32 159.74 5.88 159.73 6.46 159.71C7.06 159.69 7.61 159.67 8.11 159.65C8.63 159.61 9.04 159.58 9.34 159.56C9.66 159.52 9.82 159.5 9.82 159.5L9.97 159.74L9.85 161.51C9.17 161.57 8.66 161.64 8.32 161.72C8 161.8 7.78 161.91 7.66 162.05C7.56 162.19 7.51 162.4 7.51 162.68C7.51 162.84 7.56 163.18 7.66 163.7C7.76 164.22 7.89 164.86 8.05 165.62C8.21 166.36 8.39 167.16 8.59 168.02C8.81 168.88 9.02 169.73 9.22 170.57C9.42 171.41 9.6 172.17 9.76 172.85C9.92 173.53 10.05 174.08 10.15 174.5C10.25 174.92 10.3 175.13 10.3 175.13H10.75C10.89 174.75 11.08 174.21 11.32 173.51C11.56 172.79 11.83 171.99 12.13 171.11C12.43 170.21 12.72 169.3 13 168.38C13.28 167.44 13.54 166.56 13.78 165.74C14.04 164.92 14.24 164.22 14.38 163.64C14.52 163.06 14.59 162.7 14.59 162.56C14.59 162.22 14.48 161.98 14.26 161.84C14.04 161.7 13.63 161.63 13.03 161.63H11.83L11.71 161.42L11.89 159.59C11.89 159.59 12.13 159.61 12.61 159.65C13.09 159.67 13.67 159.69 14.35 159.71C15.05 159.73 15.71 159.74 16.33 159.74C16.87 159.74 17.4 159.74 17.92 159.74C18.46 159.72 18.91 159.71 19.27 159.71C19.63 159.69 19.81 159.68 19.81 159.68L19.6 161.63C19.1 161.69 18.75 161.82 18.55 162.02C18.35 162.22 18.15 162.61 17.95 163.19L12.4 178.85L7.63 179.45ZM19.0659 179.33L19.3059 177.44C19.8859 177.34 20.3059 177.14 20.5659 176.84C20.8459 176.54 20.9859 176.12 20.9859 175.58V169.1C20.9859 168.46 20.8959 168.02 20.7159 167.78C20.5359 167.54 20.2059 167.42 19.7259 167.42C19.6059 167.42 19.4559 167.44 19.2759 167.48C19.1159 167.5 19.0359 167.51 19.0359 167.51L19.2159 165.8C19.8959 165.7 20.5659 165.6 21.2259 165.5C21.9059 165.38 22.5159 165.27 23.0559 165.17C23.6159 165.05 24.0559 164.96 24.3759 164.9C24.7159 164.84 24.8859 164.81 24.8859 164.81L25.1559 165.29C25.0559 165.51 24.9559 165.94 24.8559 166.58C24.7759 167.2 24.7059 167.98 24.6459 168.92C24.5859 169.84 24.5359 170.9 24.4959 172.1C24.4559 173.28 24.4359 174.53 24.4359 175.85C24.4359 176.31 24.5059 176.65 24.6459 176.87C24.7859 177.07 25.0259 177.17 25.3659 177.17C25.5259 177.17 25.7059 177.16 25.9059 177.14C26.1259 177.12 26.2359 177.11 26.2359 177.11L26.3259 177.26L26.0259 179.09C26.0259 179.09 25.9159 179.08 25.6959 179.06C25.4759 179.06 25.1859 179.05 24.8259 179.03C24.4859 179.03 24.1259 179.02 23.7459 179C23.3859 179 23.0459 179 22.7259 179C22.2459 179 21.7159 179.03 21.1359 179.09C20.5759 179.15 20.0859 179.2 19.6659 179.24C19.2659 179.3 19.0659 179.33 19.0659 179.33ZM22.4559 162.23C21.7759 162.23 21.2559 162.04 20.8959 161.66C20.5559 161.26 20.3859 160.75 20.3859 160.13C20.3859 159.43 20.6059 158.86 21.0459 158.42C21.4859 157.96 22.0559 157.73 22.7559 157.73C23.4159 157.73 23.9159 157.93 24.2559 158.33C24.6159 158.73 24.7959 159.24 24.7959 159.86C24.7959 160.56 24.5859 161.13 24.1659 161.57C23.7459 162.01 23.1759 162.23 22.4559 162.23ZM40.1856 179.36C38.4056 179.36 37.4056 178.64 37.1856 177.2L37.0056 177.14C36.0456 177.82 35.2656 178.34 34.6656 178.7C34.0856 179.06 33.6956 179.24 33.4956 179.24C32.3356 179.24 31.3256 178.98 30.4656 178.46C29.6256 177.92 28.9656 177.16 28.4856 176.18C28.0256 175.18 27.7956 174.01 27.7956 172.67C27.7956 171.17 28.1156 169.84 28.7556 168.68C29.4156 167.5 30.3156 166.57 31.4556 165.89C32.5956 165.21 33.8956 164.87 35.3556 164.87C35.6156 164.87 35.8656 164.88 36.1056 164.9C36.3656 164.9 36.6356 164.92 36.9156 164.96V161.09C36.9156 160.47 36.8156 160.04 36.6156 159.8C36.4356 159.54 36.1156 159.41 35.6556 159.41C35.5156 159.41 35.3556 159.43 35.1756 159.47C35.0156 159.49 34.9356 159.5 34.9356 159.5L35.1156 157.73C35.8156 157.65 36.5156 157.55 37.2156 157.43C37.9156 157.31 38.5456 157.2 39.1056 157.1C39.6856 156.98 40.1456 156.89 40.4856 156.83C40.8456 156.77 41.0256 156.74 41.0256 156.74L41.2956 157.25C41.1956 157.41 41.0956 157.84 40.9956 158.54C40.8956 159.24 40.8056 160.16 40.7256 161.3C40.6656 162.42 40.6056 163.71 40.5456 165.17C40.4856 166.63 40.4356 168.2 40.3956 169.88C40.3756 171.54 40.3656 173.27 40.3656 175.07C40.3656 175.45 40.4456 175.75 40.6056 175.97C40.7856 176.19 41.0256 176.3 41.3256 176.3C41.5656 176.3 41.7856 176.26 41.9856 176.18C42.2056 176.08 42.3756 175.99 42.4956 175.91C42.6356 175.83 42.7056 175.79 42.7056 175.79L43.1856 176.42C43.1856 176.42 43.1056 176.54 42.9456 176.78C42.7856 177.02 42.5656 177.32 42.2856 177.68C42.0256 178.02 41.7156 178.35 41.3556 178.67C40.9956 178.99 40.6056 179.22 40.1856 179.36ZM34.6056 176.48C34.8856 176.48 35.1556 176.43 35.4156 176.33C35.6956 176.21 35.9456 176.09 36.1656 175.97C36.3856 175.83 36.5656 175.71 36.7056 175.61C36.8456 175.51 36.9156 175.46 36.9156 175.46V167.87C36.9156 167.87 36.7056 167.79 36.2856 167.63C35.8856 167.45 35.3556 167.36 34.6956 167.36C33.7156 167.36 32.9556 167.73 32.4156 168.47C31.8756 169.19 31.6056 170.22 31.6056 171.56C31.6056 172.56 31.7256 173.43 31.9656 174.17C32.2256 174.89 32.5756 175.46 33.0156 175.88C33.4756 176.28 34.0056 176.48 34.6056 176.48ZM50.6889 179.36C49.2889 179.36 48.0789 179.08 47.0589 178.52C46.0589 177.96 45.2789 177.16 44.7189 176.12C44.1789 175.08 43.9089 173.86 43.9089 172.46C43.9089 171.36 44.0889 170.35 44.4489 169.43C44.8089 168.51 45.3089 167.71 45.9489 167.03C46.5889 166.33 47.3389 165.79 48.1989 165.41C49.0589 165.01 49.9889 164.81 50.9889 164.81C54.3489 164.81 56.0289 166.51 56.0289 169.91C56.0289 170.21 55.9989 170.52 55.9389 170.84C55.8989 171.16 55.8589 171.41 55.8189 171.59L55.4589 171.95H47.6889C47.7289 173.33 48.0489 174.41 48.6489 175.19C49.2689 175.95 50.1289 176.37 51.2289 176.45C52.3289 176.53 53.6189 176.23 55.0989 175.55L55.3089 175.67L55.7889 177.14C55.3889 177.44 54.8889 177.77 54.2889 178.13C53.6889 178.47 53.0689 178.76 52.4289 179C51.7889 179.24 51.2089 179.36 50.6889 179.36ZM47.6889 170.3L51.7989 170.06C52.0389 170.04 52.1889 169.99 52.2489 169.91C52.3289 169.81 52.3689 169.63 52.3689 169.37C52.3689 168.65 52.2089 168.1 51.8889 167.72C51.5689 167.34 51.0989 167.15 50.4789 167.15C49.6989 167.15 49.0589 167.42 48.5589 167.96C48.0789 168.48 47.7889 169.26 47.6889 170.3ZM64.2763 179.36C62.9963 179.36 61.8863 179.08 60.9463 178.52C60.0063 177.96 59.2663 177.16 58.7263 176.12C58.2063 175.08 57.9463 173.87 57.9463 172.49C57.9463 170.97 58.2463 169.64 58.8463 168.5C59.4663 167.34 60.3163 166.44 61.3963 165.8C62.4963 165.14 63.7563 164.81 65.1763 164.81C66.4763 164.81 67.5963 165.09 68.5363 165.65C69.4763 166.21 70.1963 167 70.6963 168.02C71.2163 169.04 71.4763 170.25 71.4763 171.65C71.4763 173.17 71.1763 174.51 70.5763 175.67C69.9763 176.83 69.1263 177.74 68.0263 178.4C66.9463 179.04 65.6963 179.36 64.2763 179.36ZM64.8763 177.11C65.7363 177.11 66.3863 176.77 66.8263 176.09C67.2863 175.39 67.5163 174.37 67.5163 173.03C67.5163 171.77 67.3963 170.72 67.1563 169.88C66.9163 169.02 66.5663 168.38 66.1063 167.96C65.6663 167.54 65.1263 167.33 64.4863 167.33C63.6263 167.33 62.9663 167.67 62.5063 168.35C62.0663 169.03 61.8463 170.05 61.8463 171.41C61.8463 172.67 61.9663 173.73 62.2063 174.59C62.4463 175.43 62.7863 176.06 63.2263 176.48C63.6863 176.9 64.2363 177.11 64.8763 177.11ZM87.4499 179.36C85.6099 179.36 84.0199 178.98 82.6799 178.22C81.3599 177.46 80.3399 176.37 79.6199 174.95C78.8999 173.53 78.5399 171.85 78.5399 169.91C78.5399 168.31 78.7799 166.87 79.2599 165.59C79.7599 164.29 80.4699 163.18 81.3899 162.26C82.3099 161.34 83.4099 160.63 84.6899 160.13C85.9899 159.63 87.4399 159.38 89.0399 159.38C89.6599 159.38 90.2999 159.42 90.9599 159.5C91.6399 159.58 92.2599 159.67 92.8199 159.77C93.3799 159.87 93.8399 159.96 94.1999 160.04C94.5599 160.1 94.7399 160.13 94.7399 160.13L94.9199 160.52C94.9199 160.52 94.8599 160.77 94.7399 161.27C94.6399 161.77 94.5299 162.45 94.4099 163.31C94.2899 164.15 94.1899 165.1 94.1099 166.16L91.2599 166.34C91.2599 166.34 91.2699 166.18 91.2899 165.86C91.3099 165.52 91.3199 165.16 91.3199 164.78C91.3199 163.88 91.0499 163.23 90.5099 162.83C89.9699 162.43 89.1199 162.23 87.9599 162.23C86.9199 162.23 86.0299 162.48 85.2899 162.98C84.5699 163.48 84.0199 164.22 83.6399 165.2C83.2799 166.18 83.0999 167.4 83.0999 168.86C83.0999 170.5 83.2999 171.9 83.6999 173.06C84.1199 174.22 84.7099 175.11 85.4699 175.73C86.2299 176.33 87.1299 176.63 88.1699 176.63C89.2699 176.63 90.1299 176.3 90.7499 175.64C91.3699 174.98 91.7999 173.91 92.0399 172.43L94.9199 172.25C94.9199 172.25 94.8899 172.42 94.8299 172.76C94.7899 173.1 94.7299 173.55 94.6499 174.11C94.5899 174.65 94.5199 175.25 94.4399 175.91C94.3799 176.55 94.3399 177.18 94.3199 177.8L94.0199 178.16C94.0199 178.16 93.7299 178.26 93.1499 178.46C92.5699 178.66 91.7799 178.86 90.7799 179.06C89.7999 179.26 88.6899 179.36 87.4499 179.36ZM103.007 179.36C101.727 179.36 100.617 179.08 99.6768 178.52C98.7368 177.96 97.9968 177.16 97.4568 176.12C96.9368 175.08 96.6768 173.87 96.6768 172.49C96.6768 170.97 96.9768 169.64 97.5768 168.5C98.1968 167.34 99.0468 166.44 100.127 165.8C101.227 165.14 102.487 164.81 103.907 164.81C105.207 164.81 106.327 165.09 107.267 165.65C108.207 166.21 108.927 167 109.427 168.02C109.947 169.04 110.207 170.25 110.207 171.65C110.207 173.17 109.907 174.51 109.307 175.67C108.707 176.83 107.857 177.74 106.757 178.4C105.677 179.04 104.427 179.36 103.007 179.36ZM103.607 177.11C104.467 177.11 105.117 176.77 105.557 176.09C106.017 175.39 106.247 174.37 106.247 173.03C106.247 171.77 106.127 170.72 105.887 169.88C105.647 169.02 105.297 168.38 104.837 167.96C104.397 167.54 103.857 167.33 103.217 167.33C102.357 167.33 101.697 167.67 101.237 168.35C100.797 169.03 100.577 170.05 100.577 171.41C100.577 172.67 100.697 173.73 100.937 174.59C101.177 175.43 101.517 176.06 101.957 176.48C102.417 176.9 102.967 177.11 103.607 177.11ZM120.756 177.38C121.256 177.28 121.606 177.1 121.806 176.84C122.026 176.56 122.146 176.18 122.166 175.7L122.256 170.51C122.256 169.63 122.096 168.98 121.776 168.56C121.456 168.12 120.966 167.9 120.306 167.9C119.986 167.9 119.646 167.97 119.286 168.11C118.946 168.23 118.636 168.38 118.356 168.56C118.076 168.74 117.846 168.9 117.666 169.04C117.646 169.58 117.616 170.19 117.576 170.87C117.536 171.55 117.496 172.23 117.456 172.91C117.436 173.57 117.416 174.16 117.396 174.68C117.376 175.2 117.366 175.57 117.366 175.79C117.366 176.31 117.436 176.67 117.576 176.87C117.716 177.05 117.946 177.14 118.266 177.14C118.406 177.14 118.576 177.14 118.776 177.14C118.976 177.12 119.076 177.11 119.076 177.11L119.136 177.23L118.836 179.09C118.836 179.09 118.656 179.08 118.296 179.06C117.936 179.04 117.506 179.02 117.006 179C116.526 179 116.086 179 115.686 179C115.166 179 114.626 179.01 114.066 179.03C113.526 179.07 113.066 179.1 112.686 179.12C112.326 179.16 112.146 179.18 112.146 179.18L112.386 177.32C112.966 177.24 113.366 177.08 113.586 176.84C113.826 176.6 113.946 176.2 113.946 175.64V169.28C113.946 168.6 113.836 168.13 113.616 167.87C113.416 167.61 113.036 167.48 112.476 167.48H112.086L111.966 167.33L112.116 165.77C113.036 165.63 113.916 165.49 114.756 165.35C115.596 165.19 116.286 165.06 116.826 164.96C117.366 164.84 117.636 164.78 117.636 164.78L117.876 165.08C117.876 165.08 117.826 165.3 117.726 165.74C117.646 166.16 117.586 166.63 117.546 167.15L117.666 167.27C117.906 167.07 118.196 166.83 118.536 166.55C118.896 166.27 119.266 166 119.646 165.74C120.046 165.48 120.416 165.26 120.756 165.08C121.096 164.9 121.366 164.81 121.566 164.81C122.986 164.81 124.086 165.15 124.866 165.83C125.666 166.51 126.066 167.46 126.066 168.68C126.066 168.98 126.036 169.44 125.976 170.06C125.916 170.68 125.846 171.36 125.766 172.1C125.706 172.84 125.646 173.54 125.586 174.2C125.546 174.86 125.526 175.38 125.526 175.76C125.526 176.26 125.596 176.63 125.736 176.87C125.876 177.09 126.116 177.2 126.456 177.2C126.636 177.2 126.836 177.19 127.056 177.17C127.276 177.15 127.386 177.14 127.386 177.14L127.446 177.26L127.176 179.09C127.176 179.09 127.056 179.08 126.816 179.06C126.596 179.06 126.316 179.05 125.976 179.03C125.636 179.03 125.286 179.02 124.926 179C124.566 179 124.236 179 123.936 179C123.636 179 123.296 179.01 122.916 179.03C122.556 179.07 122.196 179.1 121.836 179.12C121.476 179.14 121.176 179.16 120.936 179.18C120.716 179.22 120.606 179.24 120.606 179.24L120.756 177.38ZM134.211 179.36C132.791 179.36 131.751 179.06 131.091 178.46C130.431 177.86 130.101 176.93 130.101 175.67V168.98C130.101 168.36 129.991 167.94 129.771 167.72C129.551 167.5 129.121 167.38 128.481 167.36L128.181 167.15L128.391 165.68C129.031 165.38 129.651 165.05 130.251 164.69C130.851 164.31 131.381 163.96 131.841 163.64C132.321 163.3 132.701 163.03 132.981 162.83C133.261 162.61 133.401 162.5 133.401 162.5L134.241 162.92C134.241 162.92 134.201 163.15 134.121 163.61C134.061 164.05 133.991 164.68 133.911 165.5L137.451 165.41L137.571 165.56L137.271 167.57L133.731 167.48C133.671 168.34 133.621 169.32 133.581 170.42C133.561 171.5 133.551 172.7 133.551 174.02C133.551 174.88 133.701 175.5 134.001 175.88C134.301 176.26 134.791 176.45 135.471 176.45C135.911 176.45 136.321 176.38 136.701 176.24C137.081 176.1 137.271 176.03 137.271 176.03L137.661 176.99C137.661 176.99 137.521 177.11 137.241 177.35C136.981 177.59 136.651 177.87 136.251 178.19C135.871 178.49 135.491 178.76 135.111 179C134.731 179.24 134.431 179.36 134.211 179.36ZM145.552 179.36C144.152 179.36 142.942 179.08 141.922 178.52C140.922 177.96 140.142 177.16 139.582 176.12C139.042 175.08 138.772 173.86 138.772 172.46C138.772 171.36 138.952 170.35 139.312 169.43C139.672 168.51 140.172 167.71 140.812 167.03C141.452 166.33 142.202 165.79 143.062 165.41C143.922 165.01 144.852 164.81 145.852 164.81C149.212 164.81 150.892 166.51 150.892 169.91C150.892 170.21 150.862 170.52 150.802 170.84C150.762 171.16 150.722 171.41 150.682 171.59L150.322 171.95H142.552C142.592 173.33 142.912 174.41 143.512 175.19C144.132 175.95 144.992 176.37 146.092 176.45C147.192 176.53 148.482 176.23 149.962 175.55L150.172 175.67L150.652 177.14C150.252 177.44 149.752 177.77 149.152 178.13C148.552 178.47 147.932 178.76 147.292 179C146.652 179.24 146.072 179.36 145.552 179.36ZM142.552 170.3L146.662 170.06C146.902 170.04 147.052 169.99 147.112 169.91C147.192 169.81 147.232 169.63 147.232 169.37C147.232 168.65 147.072 168.1 146.752 167.72C146.432 167.34 145.962 167.15 145.342 167.15C144.562 167.15 143.922 167.42 143.422 167.96C142.942 168.48 142.652 169.26 142.552 170.3ZM161.42 177.38C161.92 177.28 162.27 177.1 162.47 176.84C162.69 176.56 162.81 176.18 162.83 175.7L162.92 170.51C162.92 169.63 162.76 168.98 162.44 168.56C162.12 168.12 161.63 167.9 160.97 167.9C160.65 167.9 160.31 167.97 159.95 168.11C159.61 168.23 159.3 168.38 159.02 168.56C158.74 168.74 158.51 168.9 158.33 169.04C158.31 169.58 158.28 170.19 158.24 170.87C158.2 171.55 158.16 172.23 158.12 172.91C158.1 173.57 158.08 174.16 158.06 174.68C158.04 175.2 158.03 175.57 158.03 175.79C158.03 176.31 158.1 176.67 158.24 176.87C158.38 177.05 158.61 177.14 158.93 177.14C159.07 177.14 159.24 177.14 159.44 177.14C159.64 177.12 159.74 177.11 159.74 177.11L159.8 177.23L159.5 179.09C159.5 179.09 159.32 179.08 158.96 179.06C158.6 179.04 158.17 179.02 157.67 179C157.19 179 156.75 179 156.35 179C155.83 179 155.29 179.01 154.73 179.03C154.19 179.07 153.73 179.1 153.35 179.12C152.99 179.16 152.81 179.18 152.81 179.18L153.05 177.32C153.63 177.24 154.03 177.08 154.25 176.84C154.49 176.6 154.61 176.2 154.61 175.64V169.28C154.61 168.6 154.5 168.13 154.28 167.87C154.08 167.61 153.7 167.48 153.14 167.48H152.75L152.63 167.33L152.78 165.77C153.7 165.63 154.58 165.49 155.42 165.35C156.26 165.19 156.95 165.06 157.49 164.96C158.03 164.84 158.3 164.78 158.3 164.78L158.54 165.08C158.54 165.08 158.49 165.3 158.39 165.74C158.31 166.16 158.25 166.63 158.21 167.15L158.33 167.27C158.57 167.07 158.86 166.83 159.2 166.55C159.56 166.27 159.93 166 160.31 165.74C160.71 165.48 161.08 165.26 161.42 165.08C161.76 164.9 162.03 164.81 162.23 164.81C163.65 164.81 164.75 165.15 165.53 165.83C166.33 166.51 166.73 167.46 166.73 168.68C166.73 168.98 166.7 169.44 166.64 170.06C166.58 170.68 166.51 171.36 166.43 172.1C166.37 172.84 166.31 173.54 166.25 174.2C166.21 174.86 166.19 175.38 166.19 175.76C166.19 176.26 166.26 176.63 166.4 176.87C166.54 177.09 166.78 177.2 167.12 177.2C167.3 177.2 167.5 177.19 167.72 177.17C167.94 177.15 168.05 177.14 168.05 177.14L168.11 177.26L167.84 179.09C167.84 179.09 167.72 179.08 167.48 179.06C167.26 179.06 166.98 179.05 166.64 179.03C166.3 179.03 165.95 179.02 165.59 179C165.23 179 164.9 179 164.6 179C164.3 179 163.96 179.01 163.58 179.03C163.22 179.07 162.86 179.1 162.5 179.12C162.14 179.14 161.84 179.16 161.6 179.18C161.38 179.22 161.27 179.24 161.27 179.24L161.42 177.38ZM174.875 179.36C173.455 179.36 172.415 179.06 171.755 178.46C171.095 177.86 170.765 176.93 170.765 175.67V168.98C170.765 168.36 170.655 167.94 170.435 167.72C170.215 167.5 169.785 167.38 169.145 167.36L168.845 167.15L169.055 165.68C169.695 165.38 170.315 165.05 170.915 164.69C171.515 164.31 172.045 163.96 172.505 163.64C172.985 163.3 173.365 163.03 173.645 162.83C173.925 162.61 174.065 162.5 174.065 162.5L174.905 162.92C174.905 162.92 174.865 163.15 174.785 163.61C174.725 164.05 174.655 164.68 174.575 165.5L178.115 165.41L178.235 165.56L177.935 167.57L174.395 167.48C174.335 168.34 174.285 169.32 174.245 170.42C174.225 171.5 174.215 172.7 174.215 174.02C174.215 174.88 174.365 175.5 174.665 175.88C174.965 176.26 175.455 176.45 176.135 176.45C176.575 176.45 176.985 176.38 177.365 176.24C177.745 176.1 177.935 176.03 177.935 176.03L178.325 176.99C178.325 176.99 178.185 177.11 177.905 177.35C177.645 177.59 177.315 177.87 176.915 178.19C176.535 178.49 176.155 178.76 175.775 179C175.395 179.24 175.095 179.36 174.875 179.36Z" fill="white"/>
</svg>
