<svg width="179" height="189" viewBox="0 0 179 189" fill="none" xmlns="http://www.w3.org/2000/svg">
<path d="M116.765 62.3125C115.789 60.5391 117.031 58.7344 119.156 56.5C122.523 52.9531 126.187 44.7266 122.781 36.375C122.804 36.3281 122.109 34.9219 122.133 34.875L120.734 34.8047C120.289 34.7422 104.906 34.7109 89.5076 34.7109C74.1092 34.7109 58.7263 34.7422 58.281 34.8047C58.281 34.8047 56.2107 36.3281 56.2263 36.375C52.8279 44.7266 56.4842 52.9531 59.8513 56.5C61.9685 58.7344 63.2107 60.5391 62.242 62.3125C61.2967 64.0391 58.4842 64.2891 58.4842 64.2891C58.4842 64.2891 59.1326 66.0547 60.6951 67.0078C62.1404 67.8906 63.9217 68.0937 65.1482 68.125C65.1482 68.125 69.9529 74.7734 82.5154 74.7734H96.4998C109.062 74.7734 113.867 68.125 113.867 68.125C115.094 68.0937 116.875 67.8906 118.32 67.0078C119.883 66.0547 120.531 64.2891 120.531 64.2891C120.531 64.2891 117.711 64.0313 116.765 62.3125Z" fill="#312D2D"/>
<path d="M89.4922 74.7656V67.3906L111.812 65.625L113.844 68.125C113.844 68.125 109.039 74.7734 96.4766 74.7734L89.4922 74.7656Z" fill="url(#paint0_radial_116_76)"/>
<path d="M113.797 64.8984C110.453 59.8203 117.867 57.9219 117.867 57.9219L117.875 57.9297C116.586 59.5313 116 60.9297 116.758 62.3125C117.703 64.0391 120.516 64.2891 120.516 64.2891C120.516 64.2891 116.68 67.6953 113.797 64.8984Z" fill="url(#paint1_radial_116_76)"/>
<path d="M122.797 36.375C126.117 44.4609 122.625 52.7891 119.352 56.3047C118.906 56.7891 117 58.6562 116.562 60.1484C116.562 60.1484 109.109 49.75 106.883 43.6406C106.438 42.4062 106.023 41.1406 105.969 39.8281C105.93 38.8437 106.078 37.6719 106.648 36.8359C107.344 35.8125 122.398 35.5078 122.398 35.5078C122.398 35.5156 122.797 36.375 122.797 36.375Z" fill="url(#paint2_radial_116_76)"/>
<path d="M56.2186 36.375C52.8982 44.4609 56.3904 52.7891 59.6639 56.3047C60.117 56.7891 62.0154 58.6562 62.4529 60.1484C62.4529 60.1484 69.9061 49.75 72.1326 43.6406C72.5858 42.4062 72.992 41.1406 73.0467 39.8281C73.0857 38.8437 72.9373 37.6719 72.367 36.8359C71.6717 35.8125 70.8592 36.0859 69.6795 36.0859C67.4295 36.0859 57.5779 35.5078 56.8123 35.5078C56.8201 35.5156 56.2186 36.375 56.2186 36.375Z" fill="url(#paint3_radial_116_76)"/>
<path d="M89.5234 74.7656V67.3906L67.2031 65.625L65.1719 68.125C65.1719 68.125 69.9766 74.7734 82.5391 74.7734L89.5234 74.7656Z" fill="url(#paint4_radial_116_76)"/>
<path d="M65.2187 64.8984C68.5625 59.8203 61.1484 57.9219 61.1484 57.9219L61.1406 57.9297C62.4297 59.5313 63.0156 60.9297 62.2578 62.3125C61.3125 64.0391 58.5 64.2891 58.5 64.2891C58.5 64.2891 62.3359 67.6953 65.2187 64.8984Z" fill="url(#paint5_radial_116_76)"/>
<path d="M97.1406 87.5312V69.7266H81.8516V87.5312H97.1406ZM110.852 39.3281H68.1484C63.5469 39.3281 59.7812 43.3359 59.7812 48.2422C59.7812 53.1484 63.5469 57.1563 68.1484 57.1563H110.844C115.445 57.1563 119.211 53.1406 119.211 48.2422C119.219 43.3438 115.453 39.3281 110.852 39.3281Z" fill="#EDC391"/>
<path d="M89.5 8.57812C75.9063 8.57812 63.3125 23.1172 63.3125 44.0469C63.3125 64.8594 76.2891 75.1484 89.5 75.1484C102.711 75.1484 115.687 64.8594 115.687 44.0469C115.687 23.1172 103.094 8.57812 89.5 8.57812Z" fill="#F9DDBD"/>
<path d="M82.3127 38.8438C81.5861 37.8828 79.9142 36.4922 76.6642 36.4922C73.4142 36.4922 71.7346 37.8906 71.0158 38.8438C70.6955 39.2656 70.7736 39.7578 71.0002 40.0547C71.2033 40.3281 71.8127 40.5859 72.4846 40.3594C73.1564 40.1328 74.4689 39.4531 76.6642 39.4375C78.8596 39.4531 80.172 40.1328 80.8439 40.3594C81.5158 40.5859 82.1252 40.3359 82.3283 40.0547C82.5471 39.7656 82.633 39.2734 82.3127 38.8438ZM107.992 38.8438C107.266 37.8828 105.594 36.4922 102.344 36.4922C99.0939 36.4922 97.4142 37.8906 96.6955 38.8438C96.3752 39.2656 96.4533 39.7578 96.6799 40.0547C96.883 40.3281 97.4924 40.5859 98.1642 40.3594C98.8361 40.1328 100.149 39.4531 102.344 39.4375C104.539 39.4531 105.852 40.1328 106.524 40.3594C107.195 40.5859 107.805 40.3359 108.008 40.0547C108.227 39.7656 108.313 39.2734 107.992 38.8438Z" fill="#454140"/>
<path d="M76.6563 49.8594C78.7834 49.8594 80.5078 48.0755 80.5078 45.875C80.5078 43.6745 78.7834 41.8906 76.6563 41.8906C74.5291 41.8906 72.8047 43.6745 72.8047 45.875C72.8047 48.0755 74.5291 49.8594 76.6563 49.8594Z" fill="#312D2D"/>
<path d="M102.344 49.8594C104.471 49.8594 106.195 48.0755 106.195 45.875C106.195 43.6745 104.471 41.8906 102.344 41.8906C100.217 41.8906 98.4922 43.6745 98.4922 45.875C98.4922 48.0755 100.217 49.8594 102.344 49.8594Z" fill="#312D2D"/>
<path d="M96.0782 59.4141C93.5938 60.8907 85.4297 60.8907 82.9454 59.4141C81.5157 58.5625 80.0547 59.8672 80.6485 61.1641C81.2344 62.4375 85.6797 65.3985 89.5313 65.3985C93.3829 65.3985 97.7735 62.4375 98.3594 61.1641C98.9454 59.8672 97.5079 58.5625 96.0782 59.4141Z" fill="#444444"/>
<path d="M92.5156 53.0938C92.4297 53.0625 92.3516 53.0391 92.2656 53.0312H86.7344C86.6484 53.0391 86.5625 53.0625 86.4844 53.0938C85.9844 53.2969 85.7109 53.8125 85.9453 54.3672C86.1797 54.9219 87.2813 56.4688 89.5 56.4688C91.7188 56.4688 92.8203 54.9141 93.0547 54.3672C93.2891 53.8203 93.0156 53.2969 92.5156 53.0938Z" fill="#DBA689"/>
<path d="M117.055 18.3203C116.437 14.6328 106.234 8.07025 102.414 6.85932C92.0701 3.58588 85.3436 4.914 81.7342 6.88275C80.9842 7.289 76.1326 9.98432 72.742 8.05463C70.617 6.84369 64.5154 16.5234 61.4451 18.3749C57.8592 20.539 58.1717 24.4765 58.7186 26.0078C56.7498 27.6796 54.2733 31.2343 55.9686 35.8515C57.2498 39.3281 62.3514 40.9296 62.3514 40.9296C61.867 49.3203 64.1326 53.3906 64.1326 53.3906C64.1326 53.3906 67.7967 38.9765 67.492 36.7734C67.492 36.7734 73.5545 35.5703 80.4373 31.6328C85.0858 28.9687 88.2654 25.8515 93.492 24.6718C101.445 22.8828 103.219 28.6406 103.219 28.6406C103.219 28.6406 110.578 27.2265 112.797 37.4453C113.711 41.6484 114.305 48.6171 114.805 52.8906C114.758 52.5156 117.336 47.9453 117.82 43.2578C117.945 42.0468 121.211 40.4453 122.617 35.2421C124.492 28.3046 122.43 20.789 117.055 18.3203Z" fill="#312D2D"/>
<path d="M122.625 35.2344C121.453 39.5547 119.008 41.3906 118.133 42.5859C116.93 35.2656 117.117 28.3125 108.203 20.0781C108.203 20.0781 109.992 19.6953 110.867 18.1016C111.547 16.8594 111.289 15.3125 111.289 15.3125C111.586 15.3281 111.891 15.3594 112.203 15.3984C113.734 15.6797 115.297 16.4297 116.727 17.3906C116.898 17.7187 117.008 18.0313 117.055 18.3203C122.43 20.7813 124.5 28.2969 122.625 35.2344Z" fill="url(#paint6_radial_116_76)"/>
<path d="M58.5391 26.1641C56.6876 27.8047 54.1954 31.4687 56.0313 36.0156C57.4141 39.4453 62.3516 40.9297 62.3516 40.9297C62.3516 40.9453 63.336 41.2422 63.8438 41.2422L65.0001 24.1328C62.6329 24.1328 60.3594 24.8438 58.8907 25.8672C58.9141 25.8906 58.5313 26.1406 58.5391 26.1641Z" fill="url(#paint7_radial_116_76)"/>
<path d="M65.039 24.1406V24.1016C62.6718 24.1016 60.4062 24.8125 58.9296 25.8281C58.9296 25.8516 58.8124 25.9375 58.7187 26.0078V26C58.7265 25.9922 58.7421 25.9844 58.7499 25.9766C58.203 24.4453 57.8827 20.5078 61.4765 18.3437C61.8202 18.1328 62.203 17.8281 62.6171 17.4453C63.5702 17.0547 64.5859 16.8281 65.5234 16.7344C65.7968 16.7109 66.2968 16.6719 66.4452 16.6719L70.203 17.1328L65.039 24.1406Z" fill="url(#paint8_radial_116_76)"/>
<path d="M130.648 41.6406C129.68 41.6406 128.891 42.3906 128.891 43.3125V50.5C128.891 51.4219 129.68 52.1719 130.648 52.1719C131.617 52.1719 132.406 51.4219 132.406 50.5V43.3125C132.406 42.3906 131.617 41.6406 130.648 41.6406ZM127.133 41.6406C126.164 41.6406 125.375 42.3906 125.375 43.3125V50.5C125.375 51.4219 126.164 52.1719 127.133 52.1719C128.102 52.1719 128.891 51.4219 128.891 50.5V43.3125C128.891 42.3906 128.102 41.6406 127.133 41.6406Z" fill="#E8AD00"/>
<path d="M128.891 41.6406C127.922 41.6406 127.133 42.3906 127.133 43.3125V52.0547C127.133 52.9766 127.922 53.7266 128.891 53.7266C129.859 53.7266 130.648 52.9766 130.648 52.0547V43.3125C130.648 42.3906 129.859 41.6406 128.891 41.6406Z" fill="#FFCA28"/>
<path d="M128.891 42.7344C130.081 42.7344 131.047 41.8145 131.047 40.6797C131.047 39.5449 130.081 38.625 128.891 38.625C127.7 38.625 126.734 39.5449 126.734 40.6797C126.734 41.8145 127.7 42.7344 128.891 42.7344Z" fill="#FFCA28"/>
<path d="M128.891 40.6562C128.461 40.6562 128.109 40.3047 128.109 39.875V10.1875C128.109 9.75781 128.461 9.40625 128.891 9.40625C129.32 9.40625 129.672 9.75781 129.672 10.1875V39.875C129.672 40.3047 129.32 40.6562 128.891 40.6562Z" fill="#504F4F"/>
<path d="M129.672 9.375C105.586 3.32031 89.0469 3.125 89.0469 3.125C89.0469 3.125 72.5078 3.32031 48.4219 9.375V9.97656C48.4219 11.0156 49.1016 11.9297 50.0938 12.2188C53 13.0781 59.0547 14.8281 63.0078 15.625C63.0078 15.625 62.1406 16.9609 61.4453 18.375C61.4453 18.375 69.2188 23 89.0469 25C108.875 23 117.055 18.3203 117.055 18.3203C116.367 16.9063 115.508 15.625 115.508 15.625C119.023 15.0469 125.133 13.1719 128.039 12.25C129.016 11.9375 129.672 11.0391 129.672 10.0156V9.375Z" fill="url(#paint9_linear_116_76)"/>
<path d="M89.0469 3.125C89.0469 3.125 72.5078 3.32031 48.4219 9.375C48.4219 9.375 76.0859 16.9297 89.0469 16.7031C102.008 16.9297 129.672 9.375 129.672 9.375C105.578 3.32031 89.0469 3.125 89.0469 3.125Z" fill="url(#paint10_linear_116_76)"/>
<path opacity="0.4" d="M129.672 9.375C105.586 3.32031 89.0469 3.125 89.0469 3.125C89.0469 3.125 72.5078 3.32031 48.4219 9.375V9.97656C48.4219 11.0156 49.1016 11.9297 50.0938 12.2188C53 13.0781 59.0547 14.8281 63.0078 15.625C63.0078 15.625 62.1406 16.9609 61.4453 18.375C61.4453 18.375 69.2188 23 89.0469 25C108.875 23 117.055 18.3203 117.055 18.3203C116.367 16.9063 115.508 15.625 115.508 15.625C119.023 15.0469 125.133 13.1719 128.039 12.25C129.016 11.9375 129.672 11.0391 129.672 10.0156V9.375Z" fill="url(#paint11_linear_116_76)"/>
<path d="M128.953 94.5234C128.953 83.1094 111.961 77.6953 97.1406 76.4766L90.4219 85.0937C90.2031 85.375 89.8594 85.5469 89.5 85.5469C89.1406 85.5469 88.7969 85.3828 88.5781 85.0937L81.8438 76.4609C73.6016 77.0938 50.0391 80.1719 50.0391 94.5234V96.875H128.945L128.953 94.5234Z" fill="#212121"/>
<path d="M128.953 94.5234C128.953 83.1094 111.961 77.6953 97.1406 76.4766L90.4219 85.0937C90.2031 85.375 89.8594 85.5469 89.5 85.5469C89.1406 85.5469 88.7969 85.3828 88.5781 85.0937L81.8438 76.4609C73.6016 77.0938 50.0391 80.1719 50.0391 94.5234V96.875H128.945L128.953 94.5234Z" fill="url(#paint12_radial_116_76)"/>
<path d="M1.93182 139V133.318L12.7841 124.341C13.5038 123.744 14.1193 123.186 14.6307 122.665C15.1515 122.134 15.5492 121.59 15.8239 121.031C16.108 120.473 16.25 119.852 16.25 119.17C16.25 118.422 16.089 117.783 15.767 117.253C15.4545 116.723 15.0189 116.315 14.4602 116.031C13.9015 115.738 13.2576 115.591 12.5284 115.591C11.7992 115.591 11.1553 115.738 10.5966 116.031C10.0473 116.325 9.62121 116.756 9.31818 117.324C9.01515 117.892 8.86364 118.583 8.86364 119.398H1.36364C1.36364 117.352 1.82292 115.591 2.74148 114.114C3.66004 112.636 4.95739 111.5 6.63352 110.705C8.30966 109.909 10.2746 109.511 12.5284 109.511C14.858 109.511 16.875 109.885 18.5795 110.634C20.2936 111.372 21.6146 112.414 22.5426 113.759C23.4801 115.103 23.9489 116.68 23.9489 118.489C23.9489 119.606 23.7169 120.719 23.2528 121.827C22.7888 122.925 21.9555 124.142 20.7528 125.477C19.5502 126.812 17.8409 128.403 15.625 130.25L12.8977 132.523V132.693H24.2614V139H1.93182ZM39.1548 139.398C36.8632 139.398 34.8272 139.005 33.0469 138.219C31.276 137.423 29.884 136.33 28.8707 134.938C27.8575 133.545 27.3461 131.945 27.3366 130.136H35.2912C35.3007 130.695 35.4711 131.197 35.8026 131.642C36.1435 132.078 36.6075 132.419 37.1946 132.665C37.7817 132.911 38.4541 133.034 39.2116 133.034C39.9408 133.034 40.5848 132.906 41.1435 132.651C41.7022 132.385 42.1378 132.021 42.4503 131.557C42.7628 131.093 42.9143 130.562 42.9048 129.966C42.9143 129.379 42.7344 128.858 42.3651 128.403C42.0052 127.949 41.4986 127.594 40.8452 127.338C40.1918 127.082 39.4389 126.955 38.5866 126.955H35.6321V121.5H38.5866C39.3726 121.5 40.0639 121.372 40.6605 121.116C41.2666 120.861 41.7353 120.506 42.0668 120.051C42.4077 119.597 42.5734 119.076 42.5639 118.489C42.5734 117.92 42.4361 117.419 42.152 116.983C41.8679 116.547 41.4702 116.206 40.9588 115.96C40.4569 115.714 39.8745 115.591 39.2116 115.591C38.492 115.591 37.848 115.719 37.2798 115.974C36.7211 116.23 36.2808 116.585 35.9588 117.04C35.6368 117.494 35.4711 118.015 35.4616 118.602H27.9048C27.9143 116.822 28.402 115.25 29.3679 113.886C30.3433 112.523 31.6785 111.453 33.3736 110.676C35.0687 109.9 37.0147 109.511 39.2116 109.511C41.3613 109.511 43.2599 109.876 44.9077 110.605C46.5649 111.334 47.8575 112.338 48.7855 113.616C49.723 114.885 50.187 116.339 50.1776 117.977C50.1965 119.606 49.6378 120.941 48.5014 121.983C47.3745 123.025 45.9446 123.64 44.2116 123.83V124.057C46.5601 124.312 48.3262 125.032 49.5099 126.216C50.6937 127.39 51.276 128.867 51.2571 130.648C51.2666 132.352 50.7552 133.863 49.723 135.179C48.7003 136.495 47.2751 137.527 45.4474 138.276C43.6293 139.024 41.5317 139.398 39.1548 139.398ZM61.6726 135.023L61.5589 136.614C61.4643 137.977 61.237 139.284 60.8771 140.534C60.5268 141.784 60.1527 142.892 59.755 143.858C59.3667 144.824 59.0589 145.572 58.8317 146.102H54.0021C54.1536 145.572 54.3667 144.805 54.6413 143.801C54.9254 142.807 55.1811 141.68 55.4084 140.42C55.6451 139.17 55.7635 137.902 55.7635 136.614V135.023H61.6726ZM78.1179 139.795C75.4759 139.786 73.1937 139.175 71.2713 137.963C69.349 136.751 67.867 135.004 66.8253 132.722C65.7836 130.439 65.2675 127.703 65.277 124.511C65.2865 121.311 65.8073 118.593 66.8395 116.358C67.8812 114.123 69.3584 112.423 71.2713 111.259C73.1937 110.094 75.4759 109.511 78.1179 109.511C80.7599 109.511 83.0421 110.098 84.9645 111.273C86.8868 112.437 88.3688 114.137 89.4105 116.372C90.4522 118.607 90.9683 121.32 90.9588 124.511C90.9588 127.722 90.438 130.468 89.3963 132.75C88.3546 135.032 86.8726 136.779 84.9503 137.991C83.0374 139.194 80.7599 139.795 78.1179 139.795ZM78.1179 133.375C79.4815 133.375 80.599 132.665 81.4702 131.244C82.3509 129.814 82.7865 127.57 82.777 124.511C82.777 122.513 82.5781 120.88 82.1804 119.611C81.7827 118.342 81.2334 117.404 80.5327 116.798C79.8319 116.183 79.027 115.875 78.1179 115.875C76.7543 115.875 75.6416 116.566 74.7798 117.949C73.9181 119.331 73.4777 121.519 73.4588 124.511C73.4493 126.547 73.6435 128.223 74.0412 129.54C74.4389 130.847 74.9882 131.812 75.6889 132.438C76.3991 133.062 77.2088 133.375 78.1179 133.375ZM107.337 139.795C104.695 139.786 102.412 139.175 100.49 137.963C98.5677 136.751 97.0857 135.004 96.044 132.722C95.0024 130.439 94.4863 127.703 94.4957 124.511C94.5052 121.311 95.026 118.593 96.0582 116.358C97.0999 114.123 98.5772 112.423 100.49 111.259C102.412 110.094 104.695 109.511 107.337 109.511C109.979 109.511 112.261 110.098 114.183 111.273C116.106 112.437 117.588 114.137 118.629 116.372C119.671 118.607 120.187 121.32 120.178 124.511C120.178 127.722 119.657 130.468 118.615 132.75C117.573 135.032 116.091 136.779 114.169 137.991C112.256 139.194 109.979 139.795 107.337 139.795ZM107.337 133.375C108.7 133.375 109.818 132.665 110.689 131.244C111.57 129.814 112.005 127.57 111.996 124.511C111.996 122.513 111.797 120.88 111.399 119.611C111.001 118.342 110.452 117.404 109.751 116.798C109.051 116.183 108.246 115.875 107.337 115.875C105.973 115.875 104.86 116.566 103.999 117.949C103.137 119.331 102.696 121.519 102.678 124.511C102.668 126.547 102.862 128.223 103.26 129.54C103.658 130.847 104.207 131.812 104.908 132.438C105.618 133.062 106.428 133.375 107.337 133.375ZM136.555 139.795C133.913 139.786 131.631 139.175 129.709 137.963C127.786 136.751 126.304 135.004 125.263 132.722C124.221 130.439 123.705 127.703 123.714 124.511C123.724 121.311 124.245 118.593 125.277 116.358C126.319 114.123 127.796 112.423 129.709 111.259C131.631 110.094 133.913 109.511 136.555 109.511C139.197 109.511 141.48 110.098 143.402 111.273C145.324 112.437 146.806 114.137 147.848 116.372C148.89 118.607 149.406 121.32 149.396 124.511C149.396 127.722 148.875 130.468 147.834 132.75C146.792 135.032 145.31 136.779 143.388 137.991C141.475 139.194 139.197 139.795 136.555 139.795ZM136.555 133.375C137.919 133.375 139.036 132.665 139.908 131.244C140.788 129.814 141.224 127.57 141.214 124.511C141.214 122.513 141.016 120.88 140.618 119.611C140.22 118.342 139.671 117.404 138.97 116.798C138.269 116.183 137.464 115.875 136.555 115.875C135.192 115.875 134.079 116.566 133.217 117.949C132.356 119.331 131.915 121.519 131.896 124.511C131.887 126.547 132.081 128.223 132.479 129.54C132.876 130.847 133.426 131.812 134.126 132.438C134.837 133.062 135.646 133.375 136.555 133.375ZM161.854 135.023V114H168.217V135.023H161.854ZM154.524 127.693V121.33H175.547V127.693H154.524Z" fill="white"/>
<path d="M40.1 179.36C39.06 179.36 38.14 179.26 37.34 179.06C36.56 178.88 35.95 178.7 35.51 178.52C35.07 178.32 34.85 178.22 34.85 178.22L34.61 177.8C34.61 177.8 34.63 177.66 34.67 177.38C34.73 177.08 34.78 176.69 34.82 176.21C34.88 175.71 34.94 175.16 35 174.56C35.06 173.94 35.09 173.32 35.09 172.7L37.55 172.52C37.55 173.62 37.65 174.48 37.85 175.1C38.05 175.72 38.39 176.15 38.87 176.39C39.37 176.63 40.04 176.75 40.88 176.75C41.84 176.75 42.61 176.54 43.19 176.12C43.77 175.7 44.06 175.12 44.06 174.38C44.06 173.82 43.84 173.34 43.4 172.94C42.98 172.54 42.43 172.17 41.75 171.83C41.09 171.47 40.38 171.11 39.62 170.75C38.84 170.37 38.08 169.94 37.34 169.46C36.62 168.98 36.02 168.41 35.54 167.75C35.08 167.09 34.85 166.29 34.85 165.35C34.85 164.19 35.19 163.16 35.87 162.26C36.57 161.36 37.51 160.66 38.69 160.16C39.89 159.64 41.27 159.38 42.83 159.38C43.81 159.38 44.68 159.45 45.44 159.59C46.22 159.71 46.83 159.84 47.27 159.98C47.71 160.12 47.93 160.19 47.93 160.19L48.14 160.58C48.14 160.58 48.09 160.82 47.99 161.3C47.89 161.76 47.78 162.39 47.66 163.19C47.56 163.97 47.48 164.81 47.42 165.71L45.2 165.89L44.93 165.71C44.93 165.71 44.94 165.6 44.96 165.38C44.98 165.16 44.99 164.91 44.99 164.63C44.99 163.73 44.76 163.09 44.3 162.71C43.86 162.33 43.11 162.14 42.05 162.14C41.19 162.14 40.48 162.35 39.92 162.77C39.38 163.19 39.11 163.71 39.11 164.33C39.11 164.85 39.29 165.31 39.65 165.71C40.03 166.09 40.52 166.44 41.12 166.76C41.72 167.08 42.36 167.41 43.04 167.75C43.9 168.15 44.74 168.59 45.56 169.07C46.38 169.55 47.06 170.13 47.6 170.81C48.14 171.47 48.41 172.31 48.41 173.33C48.41 174.53 48.06 175.59 47.36 176.51C46.68 177.41 45.72 178.11 44.48 178.61C43.24 179.11 41.78 179.36 40.1 179.36ZM55.8519 179.36C54.4319 179.36 53.3919 179.06 52.7319 178.46C52.0719 177.86 51.7419 176.93 51.7419 175.67V168.98C51.7419 168.36 51.6319 167.94 51.4119 167.72C51.1919 167.5 50.7619 167.38 50.1219 167.36L49.8219 167.15L50.0319 165.68C50.6719 165.38 51.2919 165.05 51.8919 164.69C52.4919 164.31 53.0219 163.96 53.4819 163.64C53.9619 163.3 54.3419 163.03 54.6219 162.83C54.9019 162.61 55.0419 162.5 55.0419 162.5L55.8819 162.92C55.8819 162.92 55.8419 163.15 55.7619 163.61C55.7019 164.05 55.6319 164.68 55.5519 165.5L59.0919 165.41L59.2119 165.56L58.9119 167.57L55.3719 167.48C55.3119 168.34 55.2619 169.32 55.2219 170.42C55.2019 171.5 55.1919 172.7 55.1919 174.02C55.1919 174.88 55.3419 175.5 55.6419 175.88C55.9419 176.26 56.4319 176.45 57.1119 176.45C57.5519 176.45 57.9619 176.38 58.3419 176.24C58.7219 176.1 58.9119 176.03 58.9119 176.03L59.3019 176.99C59.3019 176.99 59.1619 177.11 58.8819 177.35C58.6219 177.59 58.2919 177.87 57.8919 178.19C57.5119 178.49 57.1319 178.76 56.7519 179C56.3719 179.24 56.0719 179.36 55.8519 179.36ZM61.8828 168.89C61.8828 168.39 61.8028 168.02 61.6428 167.78C61.4828 167.54 61.2228 167.42 60.8628 167.42C60.6828 167.42 60.5128 167.44 60.3528 167.48C60.1928 167.5 60.1128 167.51 60.1128 167.51L60.2928 165.77C60.9128 165.69 61.5328 165.6 62.1528 165.5C62.7928 165.38 63.3828 165.27 63.9228 165.17C64.4628 165.05 64.8928 164.96 65.2128 164.9C65.5528 164.84 65.7228 164.81 65.7228 164.81L65.9928 165.29C65.8728 165.55 65.7628 165.97 65.6628 166.55C65.5828 167.13 65.5028 167.82 65.4228 168.62C65.3428 169.4 65.2828 170.24 65.2428 171.14C65.2028 172.02 65.1828 172.91 65.1828 173.81C65.1828 175.43 65.8128 176.24 67.0728 176.24C67.5328 176.24 67.9828 176.12 68.4228 175.88C68.8828 175.62 69.3028 175.36 69.6828 175.1V168.92C69.6828 168.34 69.5928 167.96 69.4128 167.78C69.2528 167.58 68.9128 167.47 68.3928 167.45C68.3128 167.45 68.2028 167.46 68.0628 167.48C67.9428 167.48 67.8728 167.48 67.8528 167.48L68.0928 165.77C68.7528 165.69 69.4028 165.6 70.0428 165.5C70.7028 165.38 71.3028 165.28 71.8428 165.2C72.3828 165.1 72.8228 165.02 73.1628 164.96C73.5028 164.9 73.6728 164.87 73.6728 164.87L73.9428 165.35C73.8028 165.65 73.6728 166.29 73.5528 167.27C73.4328 168.23 73.3328 169.39 73.2528 170.75C73.1728 172.11 73.1328 173.55 73.1328 175.07C73.1328 175.45 73.2228 175.75 73.4028 175.97C73.6028 176.19 73.8728 176.3 74.2128 176.3C74.4528 176.3 74.6828 176.26 74.9028 176.18C75.1228 176.08 75.3028 175.99 75.4428 175.91C75.5828 175.83 75.6528 175.79 75.6528 175.79L76.1028 176.39C76.1028 176.39 76.0128 176.53 75.8328 176.81C75.6528 177.07 75.4028 177.39 75.0828 177.77C74.7828 178.13 74.4528 178.47 74.0928 178.79C73.7328 179.09 73.3728 179.28 73.0128 179.36C71.1728 179.36 70.1528 178.59 69.9528 177.05L69.7128 176.93C68.9328 177.65 68.2328 178.23 67.6128 178.67C67.0128 179.11 66.5928 179.33 66.3528 179.33C64.8328 179.33 63.6728 179.01 62.8728 178.37C62.0728 177.73 61.6728 176.8 61.6728 175.58L61.8828 168.89ZM89.1798 179.36C87.3998 179.36 86.3998 178.64 86.1798 177.2L85.9998 177.14C85.0398 177.82 84.2598 178.34 83.6598 178.7C83.0798 179.06 82.6898 179.24 82.4898 179.24C81.3298 179.24 80.3198 178.98 79.4598 178.46C78.6198 177.92 77.9598 177.16 77.4798 176.18C77.0198 175.18 76.7898 174.01 76.7898 172.67C76.7898 171.17 77.1098 169.84 77.7498 168.68C78.4098 167.5 79.3098 166.57 80.4498 165.89C81.5898 165.21 82.8898 164.87 84.3498 164.87C84.6098 164.87 84.8598 164.88 85.0998 164.9C85.3598 164.9 85.6298 164.92 85.9098 164.96V161.09C85.9098 160.47 85.8098 160.04 85.6098 159.8C85.4298 159.54 85.1098 159.41 84.6498 159.41C84.5098 159.41 84.3498 159.43 84.1698 159.47C84.0098 159.49 83.9298 159.5 83.9298 159.5L84.1098 157.73C84.8098 157.65 85.5098 157.55 86.2098 157.43C86.9098 157.31 87.5398 157.2 88.0998 157.1C88.6798 156.98 89.1398 156.89 89.4798 156.83C89.8398 156.77 90.0198 156.74 90.0198 156.74L90.2898 157.25C90.1898 157.41 90.0898 157.84 89.9898 158.54C89.8898 159.24 89.7998 160.16 89.7198 161.3C89.6598 162.42 89.5998 163.71 89.5398 165.17C89.4798 166.63 89.4298 168.2 89.3898 169.88C89.3698 171.54 89.3598 173.27 89.3598 175.07C89.3598 175.45 89.4398 175.75 89.5998 175.97C89.7798 176.19 90.0198 176.3 90.3198 176.3C90.5598 176.3 90.7798 176.26 90.9798 176.18C91.1998 176.08 91.3698 175.99 91.4898 175.91C91.6298 175.83 91.6998 175.79 91.6998 175.79L92.1798 176.42C92.1798 176.42 92.0998 176.54 91.9398 176.78C91.7798 177.02 91.5598 177.32 91.2798 177.68C91.0198 178.02 90.7098 178.35 90.3498 178.67C89.9898 178.99 89.5998 179.22 89.1798 179.36ZM83.5998 176.48C83.8798 176.48 84.1498 176.43 84.4098 176.33C84.6898 176.21 84.9398 176.09 85.1598 175.97C85.3798 175.83 85.5598 175.71 85.6998 175.61C85.8398 175.51 85.9098 175.46 85.9098 175.46V167.87C85.9098 167.87 85.6998 167.79 85.2798 167.63C84.8798 167.45 84.3498 167.36 83.6898 167.36C82.7098 167.36 81.9498 167.73 81.4098 168.47C80.8698 169.19 80.5998 170.22 80.5998 171.56C80.5998 172.56 80.7198 173.43 80.9598 174.17C81.2198 174.89 81.5698 175.46 82.0098 175.88C82.4698 176.28 82.9998 176.48 83.5998 176.48ZM99.683 179.36C98.283 179.36 97.073 179.08 96.053 178.52C95.053 177.96 94.273 177.16 93.713 176.12C93.173 175.08 92.903 173.86 92.903 172.46C92.903 171.36 93.083 170.35 93.443 169.43C93.803 168.51 94.303 167.71 94.943 167.03C95.583 166.33 96.333 165.79 97.193 165.41C98.053 165.01 98.983 164.81 99.983 164.81C103.343 164.81 105.023 166.51 105.023 169.91C105.023 170.21 104.993 170.52 104.933 170.84C104.893 171.16 104.853 171.41 104.813 171.59L104.453 171.95H96.683C96.723 173.33 97.043 174.41 97.643 175.19C98.263 175.95 99.123 176.37 100.223 176.45C101.323 176.53 102.613 176.23 104.093 175.55L104.303 175.67L104.783 177.14C104.383 177.44 103.883 177.77 103.283 178.13C102.683 178.47 102.063 178.76 101.423 179C100.783 179.24 100.203 179.36 99.683 179.36ZM96.683 170.3L100.793 170.06C101.033 170.04 101.183 169.99 101.243 169.91C101.323 169.81 101.363 169.63 101.363 169.37C101.363 168.65 101.203 168.1 100.883 167.72C100.563 167.34 100.093 167.15 99.473 167.15C98.693 167.15 98.053 167.42 97.553 167.96C97.073 168.48 96.783 169.26 96.683 170.3ZM115.55 177.38C116.05 177.28 116.4 177.1 116.6 176.84C116.82 176.56 116.94 176.18 116.96 175.7L117.05 170.51C117.05 169.63 116.89 168.98 116.57 168.56C116.25 168.12 115.76 167.9 115.1 167.9C114.78 167.9 114.44 167.97 114.08 168.11C113.74 168.23 113.43 168.38 113.15 168.56C112.87 168.74 112.64 168.9 112.46 169.04C112.44 169.58 112.41 170.19 112.37 170.87C112.33 171.55 112.29 172.23 112.25 172.91C112.23 173.57 112.21 174.16 112.19 174.68C112.17 175.2 112.16 175.57 112.16 175.79C112.16 176.31 112.23 176.67 112.37 176.87C112.51 177.05 112.74 177.14 113.06 177.14C113.2 177.14 113.37 177.14 113.57 177.14C113.77 177.12 113.87 177.11 113.87 177.11L113.93 177.23L113.63 179.09C113.63 179.09 113.45 179.08 113.09 179.06C112.73 179.04 112.3 179.02 111.8 179C111.32 179 110.88 179 110.48 179C109.96 179 109.42 179.01 108.86 179.03C108.32 179.07 107.86 179.1 107.48 179.12C107.12 179.16 106.94 179.18 106.94 179.18L107.18 177.32C107.76 177.24 108.16 177.08 108.38 176.84C108.62 176.6 108.74 176.2 108.74 175.64V169.28C108.74 168.6 108.63 168.13 108.41 167.87C108.21 167.61 107.83 167.48 107.27 167.48H106.88L106.76 167.33L106.91 165.77C107.83 165.63 108.71 165.49 109.55 165.35C110.39 165.19 111.08 165.06 111.62 164.96C112.16 164.84 112.43 164.78 112.43 164.78L112.67 165.08C112.67 165.08 112.62 165.3 112.52 165.74C112.44 166.16 112.38 166.63 112.34 167.15L112.46 167.27C112.7 167.07 112.99 166.83 113.33 166.55C113.69 166.27 114.06 166 114.44 165.74C114.84 165.48 115.21 165.26 115.55 165.08C115.89 164.9 116.16 164.81 116.36 164.81C117.78 164.81 118.88 165.15 119.66 165.83C120.46 166.51 120.86 167.46 120.86 168.68C120.86 168.98 120.83 169.44 120.77 170.06C120.71 170.68 120.64 171.36 120.56 172.1C120.5 172.84 120.44 173.54 120.38 174.2C120.34 174.86 120.32 175.38 120.32 175.76C120.32 176.26 120.39 176.63 120.53 176.87C120.67 177.09 120.91 177.2 121.25 177.2C121.43 177.2 121.63 177.19 121.85 177.17C122.07 177.15 122.18 177.14 122.18 177.14L122.24 177.26L121.97 179.09C121.97 179.09 121.85 179.08 121.61 179.06C121.39 179.06 121.11 179.05 120.77 179.03C120.43 179.03 120.08 179.02 119.72 179C119.36 179 119.03 179 118.73 179C118.43 179 118.09 179.01 117.71 179.03C117.35 179.07 116.99 179.1 116.63 179.12C116.27 179.14 115.97 179.16 115.73 179.18C115.51 179.22 115.4 179.24 115.4 179.24L115.55 177.38ZM129.006 179.36C127.586 179.36 126.546 179.06 125.886 178.46C125.226 177.86 124.896 176.93 124.896 175.67V168.98C124.896 168.36 124.786 167.94 124.566 167.72C124.346 167.5 123.916 167.38 123.276 167.36L122.976 167.15L123.186 165.68C123.826 165.38 124.446 165.05 125.046 164.69C125.646 164.31 126.176 163.96 126.636 163.64C127.116 163.3 127.496 163.03 127.776 162.83C128.056 162.61 128.196 162.5 128.196 162.5L129.036 162.92C129.036 162.92 128.996 163.15 128.916 163.61C128.856 164.05 128.786 164.68 128.706 165.5L132.246 165.41L132.366 165.56L132.066 167.57L128.526 167.48C128.466 168.34 128.416 169.32 128.376 170.42C128.356 171.5 128.346 172.7 128.346 174.02C128.346 174.88 128.496 175.5 128.796 175.88C129.096 176.26 129.586 176.45 130.266 176.45C130.706 176.45 131.116 176.38 131.496 176.24C131.876 176.1 132.066 176.03 132.066 176.03L132.456 176.99C132.456 176.99 132.316 177.11 132.036 177.35C131.776 177.59 131.446 177.87 131.046 178.19C130.666 178.49 130.286 178.76 129.906 179C129.526 179.24 129.226 179.36 129.006 179.36ZM137.887 179.36C137.087 179.36 136.387 179.29 135.787 179.15C135.187 179.01 134.717 178.88 134.377 178.76C134.057 178.62 133.897 178.55 133.897 178.55L133.717 178.25C133.757 177.97 133.797 177.59 133.837 177.11C133.897 176.63 133.947 176.14 133.987 175.64C134.047 175.12 134.087 174.67 134.107 174.29L135.757 174.14C135.777 175.16 136.007 175.92 136.447 176.42C136.887 176.92 137.547 177.17 138.427 177.17C139.007 177.17 139.487 177.05 139.867 176.81C140.247 176.55 140.437 176.23 140.437 175.85C140.437 175.57 140.347 175.32 140.167 175.1C140.007 174.88 139.707 174.64 139.267 174.38C138.847 174.1 138.237 173.77 137.437 173.39C136.237 172.83 135.367 172.24 134.827 171.62C134.287 170.98 134.017 170.24 134.017 169.4C134.017 168.48 134.277 167.68 134.797 167C135.317 166.32 136.047 165.79 136.987 165.41C137.927 165.01 138.997 164.81 140.197 164.81C141.177 164.81 141.977 164.9 142.597 165.08C143.237 165.26 143.557 165.35 143.557 165.35L143.707 165.65C143.707 165.65 143.667 165.84 143.587 166.22C143.527 166.58 143.447 167.06 143.347 167.66C143.267 168.24 143.197 168.86 143.137 169.52L141.457 169.64C141.457 169.64 141.457 169.57 141.457 169.43C141.477 169.29 141.487 169.18 141.487 169.1C141.487 168.4 141.317 167.89 140.977 167.57C140.637 167.23 140.107 167.06 139.387 167.06C138.847 167.06 138.397 167.19 138.037 167.45C137.697 167.69 137.527 168 137.527 168.38C137.527 168.76 137.687 169.11 138.007 169.43C138.347 169.75 138.877 170.09 139.597 170.45C140.757 170.99 141.657 171.49 142.297 171.95C142.937 172.39 143.377 172.84 143.617 173.3C143.877 173.76 144.007 174.29 144.007 174.89C144.007 175.71 143.737 176.47 143.197 177.17C142.657 177.85 141.917 178.39 140.977 178.79C140.057 179.17 139.027 179.36 137.887 179.36Z" fill="white"/>
<defs>
<radialGradient id="paint0_radial_116_76" cx="0" cy="0" r="1" gradientUnits="userSpaceOnUse" gradientTransform="translate(100.893 64.108) scale(18.2961 8.98704)">
<stop offset="0.728" stop-color="#454140" stop-opacity="0"/>
<stop offset="1" stop-color="#454140"/>
</radialGradient>
<radialGradient id="paint1_radial_116_76" cx="0" cy="0" r="1" gradientUnits="userSpaceOnUse" gradientTransform="translate(118.915 61.3862) rotate(154.924) scale(5.40676 4.01104)">
<stop offset="0.663" stop-color="#454140"/>
<stop offset="1" stop-color="#454140" stop-opacity="0"/>
</radialGradient>
<radialGradient id="paint2_radial_116_76" cx="0" cy="0" r="1" gradientUnits="userSpaceOnUse" gradientTransform="translate(104.902 46.0935) rotate(-94.2783) scale(23.7489 19.7932)">
<stop offset="0.725" stop-color="#454140" stop-opacity="0"/>
<stop offset="1" stop-color="#454140"/>
</radialGradient>
<radialGradient id="paint3_radial_116_76" cx="0" cy="0" r="1" gradientUnits="userSpaceOnUse" gradientTransform="translate(74.1154 46.0931) rotate(-85.7217) scale(23.7489 19.7932)">
<stop offset="0.725" stop-color="#454140" stop-opacity="0"/>
<stop offset="1" stop-color="#454140"/>
</radialGradient>
<radialGradient id="paint4_radial_116_76" cx="0" cy="0" r="1" gradientUnits="userSpaceOnUse" gradientTransform="translate(78.1242 64.108) rotate(180) scale(18.2961 8.98704)">
<stop offset="0.728" stop-color="#454140" stop-opacity="0"/>
<stop offset="1" stop-color="#454140"/>
</radialGradient>
<radialGradient id="paint5_radial_116_76" cx="0" cy="0" r="1" gradientUnits="userSpaceOnUse" gradientTransform="translate(60.1043 61.3867) rotate(25.0761) scale(5.40676 4.01104)">
<stop offset="0.663" stop-color="#454140"/>
<stop offset="1" stop-color="#454140" stop-opacity="0"/>
</radialGradient>
<radialGradient id="paint6_radial_116_76" cx="0" cy="0" r="1" gradientUnits="userSpaceOnUse" gradientTransform="translate(104.243 33.9544) rotate(72.0851) scale(26.4652 19.6366)">
<stop offset="0.699" stop-color="#454140" stop-opacity="0"/>
<stop offset="1" stop-color="#454140"/>
</radialGradient>
<radialGradient id="paint7_radial_116_76" cx="0" cy="0" r="1" gradientUnits="userSpaceOnUse" gradientTransform="translate(69.6061 33.8275) rotate(7.83355) scale(13.1926 18.5378)">
<stop offset="0.598" stop-color="#454140" stop-opacity="0"/>
<stop offset="1" stop-color="#454140"/>
</radialGradient>
<radialGradient id="paint8_radial_116_76" cx="0" cy="0" r="1" gradientUnits="userSpaceOnUse" gradientTransform="translate(68.4725 25.1747) rotate(-164.942) scale(10.1105 9.46162)">
<stop offset="0.66" stop-color="#454140" stop-opacity="0"/>
<stop offset="1" stop-color="#454140"/>
</radialGradient>
<linearGradient id="paint9_linear_116_76" x1="89.0445" y1="-0.260156" x2="89.0445" y2="22.1148" gradientUnits="userSpaceOnUse">
<stop offset="0.003" stop-color="#424242"/>
<stop offset="0.472" stop-color="#353535"/>
<stop offset="1" stop-color="#212121"/>
</linearGradient>
<linearGradient id="paint10_linear_116_76" x1="89.0445" y1="-0.130468" x2="89.0445" y2="24.0883" gradientUnits="userSpaceOnUse">
<stop offset="0.003" stop-color="#616161"/>
<stop offset="0.324" stop-color="#505050"/>
<stop offset="0.955" stop-color="#242424"/>
<stop offset="1" stop-color="#212121"/>
</linearGradient>
<linearGradient id="paint11_linear_116_76" x1="49.8977" y1="14.0617" x2="128.67" y2="14.0617" gradientUnits="userSpaceOnUse">
<stop offset="0.001" stop-color="#BFBEBE"/>
<stop offset="0.3" stop-color="#212121" stop-opacity="0"/>
<stop offset="0.7" stop-color="#212121" stop-opacity="0"/>
<stop offset="1" stop-color="#BFBEBE"/>
</linearGradient>
<radialGradient id="paint12_radial_116_76" cx="0" cy="0" r="1" gradientUnits="userSpaceOnUse" gradientTransform="translate(89.5 95.7837) scale(42.318 22.2042)">
<stop offset="0.598" stop-color="#212121"/>
<stop offset="1" stop-color="#616161"/>
</radialGradient>
</defs>
</svg>
